<svg id="Calque_1" data-name="Calque 1" xmlns="http://www.w3.org/2000/svg" xmlns:xlink="http://www.w3.org/1999/xlink" viewBox="0 0 165.08 165.08"><defs><style>.cls-1{fill:none;}.cls-2{clip-path:url(#clip-path);}.cls-3{fill:#424242;stroke:#fff;stroke-width:3px;}.cls-3,.cls-4{stroke-miterlimit:10;}.cls-4{fill:#fff;stroke:#d1112f;stroke-width:2px;}</style><clipPath id="clip-path" transform="translate(36.07 31.01)"><circle class="cls-1" cx="49" cy="49" r="49"/></clipPath></defs><title>Sans titre - 1</title><g class="cls-2"><line class="cls-3" x1="88.18" y1="1.06" x2="1.06" y2="88.18"/><line class="cls-3" x1="93.24" y1="6.12" x2="6.12" y2="93.24"/><line class="cls-3" x1="98.3" y1="11.17" x2="11.17" y2="98.3"/><line class="cls-3" x1="103.35" y1="16.23" x2="16.23" y2="103.35"/><line class="cls-3" x1="108.41" y1="21.28" x2="21.28" y2="108.41"/><line class="cls-3" x1="113.46" y1="26.34" x2="26.34" y2="113.46"/><line class="cls-3" x1="118.52" y1="31.39" x2="31.39" y2="118.52"/><line class="cls-3" x1="123.57" y1="36.45" x2="36.45" y2="123.57"/><line class="cls-3" x1="128.63" y1="41.5" x2="41.5" y2="128.63"/><line class="cls-3" x1="133.68" y1="46.56" x2="46.56" y2="133.68"/><line class="cls-3" x1="138.74" y1="51.62" x2="51.62" y2="138.74"/><line class="cls-3" x1="143.79" y1="56.67" x2="56.67" y2="143.79"/><line class="cls-3" x1="148.85" y1="61.73" x2="61.73" y2="148.85"/><line class="cls-3" x1="153.91" y1="66.78" x2="66.78" y2="153.91"/><line class="cls-3" x1="158.96" y1="71.84" x2="71.84" y2="158.96"/><line class="cls-3" x1="164.02" y1="76.89" x2="76.89" y2="164.02"/></g><path class="cls-4" d="M59.68,68.59h5L59.92,54.93H36.77L32.13,68.59h6.19v6.83H18.79V68.59H24L42.77,15.23H54.48l18.7,53.36h6v6.83H59.68ZM39,48.34H57.62L48.25,21.42Z" transform="translate(36.07 31.01)"/></svg>